<svg width="124" height="132" viewBox="0 0 124 132" fill="none" xmlns="http://www.w3.org/2000/svg">
<circle cx="61.61" cy="58.4906" r="57.9906" stroke="white"/>
<rect x="31.2927" y="102.894" width="61.2467" height="14.0867" fill="#829483"/>
<rect x="66.8162" y="17.7618" width="5.5122" height="34.9106" rx="2.7561" fill="#C4D3CC"/>
<rect x="66.8162" y="47.1603" width="5.5122" height="52.0597" rx="2.7561" fill="#847E89"/>
<rect x="57.0166" y="47.1603" width="5.5122" height="30.6233" rx="2.7561" transform="rotate(90 57.0166 47.1603)" fill="#BCD71A"/>
<rect x="92.5398" y="47.1603" width="5.5122" height="37.3605" rx="2.7561" transform="rotate(90 92.5398 47.1603)" fill="#C4D3CC"/>
<rect x="57.0166" y="67.3717" width="5.5122" height="30.6233" rx="2.7561" transform="rotate(90 57.0166 67.3717)" fill="#BCD71A"/>
<rect x="92.5398" y="67.3717" width="5.5122" height="25.7236" rx="2.7561" transform="rotate(90 92.5398 67.3717)" fill="#847E89"/>
<rect x="51.5044" y="17.7618" width="5.5122" height="81.4581" rx="2.7561" fill="#BCD71A"/>
<path d="M18.122 125.202C19.412 125.202 20.522 124.722 21.377 123.762C22.442 122.577 22.997 121.092 22.997 119.502C22.997 117.762 22.322 116.172 21.077 114.987C20.387 114.342 19.307 113.922 18.197 113.922C17.042 113.922 15.932 114.357 15.107 115.167C13.862 116.367 13.277 117.807 13.277 119.577C13.277 121.407 13.892 122.967 14.957 123.987C15.842 124.827 16.832 125.202 18.122 125.202ZM18.137 124.782C16.022 124.782 15.002 123.087 15.002 119.607C15.002 116.172 16.172 114.327 18.137 114.327C20.222 114.327 21.257 116.007 21.257 119.367C21.257 123.012 20.342 124.782 18.137 124.782ZM23.9986 124.962H26.3986V124.677C25.9786 124.662 25.8436 124.362 25.8436 123.717V119.337C26.6836 118.857 27.3136 118.602 27.7036 118.602C28.2436 118.602 28.3786 118.887 28.3786 119.607V123.717C28.3786 124.362 28.2436 124.662 27.8236 124.677V124.962H30.2236V124.677C29.8036 124.662 29.6686 124.362 29.6686 123.717V118.962C29.6686 118.062 29.2336 117.567 28.5886 117.567C27.8986 117.567 27.0886 118.122 25.8436 118.917V117.567H25.6036C25.1536 118.047 24.5986 118.377 23.9686 118.542V118.767C24.4336 118.812 24.5536 119.067 24.5536 119.682V123.717C24.5536 124.362 24.4036 124.662 23.9986 124.677V124.962ZM36.5477 123.387C36.0527 124.032 35.4527 124.347 34.7627 124.347C33.3827 124.347 32.4377 123.132 32.3927 120.972H36.6377C36.5327 118.782 35.5277 117.567 33.9977 117.567C32.2427 117.567 31.0877 119.037 31.0877 121.497C31.0877 123.702 32.4077 125.172 34.1627 125.172C35.2127 125.172 36.1277 124.632 36.8327 123.567L36.5477 123.387ZM32.3927 120.507V120.432C32.3927 118.767 32.9177 117.942 33.9227 117.942C34.8377 117.942 35.3627 118.737 35.3627 120.162C35.3627 120.492 35.1827 120.507 34.5827 120.507H32.3927ZM37.7991 124.962H40.7091V124.677C40.1841 124.662 40.0191 124.257 40.0191 123.357V119.262H44.9241V123.357C44.9241 124.257 44.7291 124.662 44.2191 124.677V124.962H47.1441V124.677C46.9191 124.662 46.7541 124.587 46.6491 124.422C46.4841 124.167 46.4391 123.837 46.4391 123.357V115.782C46.4391 114.882 46.6191 114.462 47.1441 114.447V114.162H44.2191V114.447C44.7441 114.462 44.9241 114.882 44.9241 115.782V118.752H40.0191V115.782C40.0191 114.882 40.1841 114.462 40.7091 114.447V114.162H37.7991V114.447C38.3241 114.462 38.4891 114.882 38.4891 115.782V123.357C38.4891 124.257 38.3091 124.662 37.7991 124.677V124.962ZM53.6131 123.387C53.1181 124.032 52.5181 124.347 51.8281 124.347C50.4481 124.347 49.5031 123.132 49.4581 120.972H53.7031C53.5981 118.782 52.5931 117.567 51.0631 117.567C49.3081 117.567 48.1531 119.037 48.1531 121.497C48.1531 123.702 49.4731 125.172 51.2281 125.172C52.2781 125.172 53.1931 124.632 53.8981 123.567L53.6131 123.387ZM49.4581 120.507V120.432C49.4581 118.767 49.9831 117.942 50.9881 117.942C51.9031 117.942 52.4281 118.737 52.4281 120.162C52.4281 120.492 52.2481 120.507 51.6481 120.507H49.4581ZM60.8196 124.422L60.6096 124.257C60.5046 124.452 60.3846 124.542 60.2196 124.542C59.9796 124.542 59.8896 124.317 59.8896 123.882V119.577C59.8896 118.182 59.2896 117.567 57.6996 117.567C56.1096 117.567 55.0896 118.332 55.0896 119.097C55.0896 119.502 55.3896 119.802 55.7646 119.802C56.1396 119.802 56.4696 119.517 56.5896 119.097C56.7996 118.377 56.9646 117.942 57.6846 117.942C58.2996 117.942 58.6146 118.377 58.6146 119.277V120.357C55.9746 121.422 54.6846 122.157 54.6846 123.567C54.6846 124.542 55.2846 125.172 56.2746 125.172C56.9796 125.172 57.7896 124.812 58.6146 124.077V124.122C58.6146 124.827 58.9296 125.172 59.5596 125.172C60.0246 125.172 60.4596 124.917 60.8196 124.422ZM58.6146 120.762V123.492C58.1046 124.122 57.5346 124.452 57.0846 124.452C56.4696 124.452 56.0046 123.942 56.0046 123.147C56.0046 122.097 56.8596 121.497 58.6146 120.762ZM61.4253 124.962H63.8553V124.677C63.4353 124.662 63.3003 124.362 63.3003 123.717V113.922H63.0303C62.5803 114.402 62.0253 114.732 61.3953 114.897V115.122C61.8603 115.167 61.9803 115.422 61.9803 116.037V123.717C61.9803 124.362 61.8303 124.662 61.4253 124.677V124.962ZM65.5888 118.257V123.732C65.5888 124.707 65.9488 125.172 66.7288 125.172C67.3588 125.172 67.9138 124.812 68.2288 124.167L68.0188 123.987C67.8538 124.152 67.6588 124.242 67.4488 124.242C67.0438 124.242 66.9088 123.897 66.9088 123.192V118.257H68.1688V117.777H66.8788V114.717H66.4588C66.1738 116.187 65.6638 117.222 64.6588 117.927V118.257H65.5888ZM69.1011 124.962H71.5011V124.677C71.0811 124.662 70.9461 124.362 70.9461 123.717V119.337C71.7861 118.857 72.4161 118.602 72.8061 118.602C73.3461 118.602 73.4811 118.887 73.4811 119.607V123.717C73.4811 124.362 73.3461 124.662 72.9261 124.677V124.962H75.3261V124.677C74.9061 124.662 74.7711 124.362 74.7711 123.717V118.962C74.7711 118.062 74.3361 117.567 73.6911 117.567C73.0011 117.567 72.1911 118.122 70.9461 118.917V113.922H70.7061C70.2561 114.402 69.7011 114.732 69.0711 114.897V115.122C69.5361 115.167 69.6561 115.422 69.6561 116.037V123.717C69.6561 124.362 69.5061 124.662 69.1011 124.677V124.962ZM76.2652 123.807C77.3452 124.722 78.6952 125.202 80.1052 125.202C82.2802 125.202 83.7502 123.792 83.7502 121.947C83.7502 121.092 83.4952 120.417 82.9402 119.877C82.3252 119.277 81.3202 118.917 80.0752 118.407C78.5752 117.792 77.7652 117.297 77.7652 116.157C77.7652 115.122 78.5302 114.387 79.8052 114.387C81.0202 114.387 82.0102 115.242 82.4152 116.787L82.7152 116.847L83.1952 114.987C82.0702 114.282 80.9752 113.922 79.9552 113.922C78.0652 113.922 76.7002 115.197 76.7002 116.847C76.7002 117.567 76.9702 118.212 77.4802 118.752C78.0952 119.397 78.9652 119.667 79.9402 120.057C81.6802 120.747 82.5802 121.257 82.5802 122.667C82.5802 123.897 81.6652 124.767 80.2702 124.767C78.7552 124.767 77.6152 123.717 77.1802 121.782L76.8502 121.722L76.2652 123.807ZM84.671 128.262H87.056V127.977C86.636 127.962 86.501 127.662 86.501 127.017V124.287C87.026 124.887 87.626 125.172 88.346 125.172C89.876 125.172 91.226 123.612 91.226 121.167C91.226 118.872 90.191 117.567 88.796 117.567C87.896 117.567 87.146 118.017 86.501 118.917V117.567H86.261C85.811 118.047 85.256 118.377 84.626 118.542V118.767C85.091 118.812 85.226 119.067 85.226 119.682V127.017C85.226 127.662 85.076 127.962 84.671 127.977V128.262ZM86.501 119.442C86.981 118.767 87.521 118.437 88.091 118.437C89.201 118.437 89.876 119.517 89.876 121.497C89.876 123.672 89.321 124.767 88.151 124.767C87.116 124.767 86.501 123.777 86.501 121.887V119.442ZM98.261 124.422L98.051 124.257C97.946 124.452 97.826 124.542 97.661 124.542C97.421 124.542 97.331 124.317 97.331 123.882V119.577C97.331 118.182 96.731 117.567 95.141 117.567C93.551 117.567 92.531 118.332 92.531 119.097C92.531 119.502 92.831 119.802 93.206 119.802C93.581 119.802 93.911 119.517 94.031 119.097C94.241 118.377 94.406 117.942 95.126 117.942C95.741 117.942 96.056 118.377 96.056 119.277V120.357C93.416 121.422 92.126 122.157 92.126 123.567C92.126 124.542 92.726 125.172 93.716 125.172C94.421 125.172 95.231 124.812 96.056 124.077V124.122C96.056 124.827 96.371 125.172 97.001 125.172C97.466 125.172 97.901 124.917 98.261 124.422ZM96.056 120.762V123.492C95.546 124.122 94.976 124.452 94.526 124.452C93.911 124.452 93.446 123.942 93.446 123.147C93.446 122.097 94.301 121.497 96.056 120.762ZM104.162 123.402C103.637 124.017 103.022 124.317 102.347 124.317C101.057 124.317 100.127 123.042 100.127 120.882C100.127 118.977 100.742 117.972 101.762 117.972C102.302 117.972 102.632 118.272 102.782 118.872C102.917 119.412 102.977 119.847 103.622 119.847C104.012 119.847 104.267 119.562 104.267 119.157C104.267 118.377 103.307 117.567 102.092 117.567C100.172 117.567 98.8367 119.187 98.8367 121.542C98.8367 123.792 100.037 125.172 101.747 125.172C102.677 125.172 103.637 124.617 104.387 123.567L104.162 123.402ZM110.552 123.387C110.057 124.032 109.457 124.347 108.767 124.347C107.387 124.347 106.442 123.132 106.397 120.972H110.642C110.537 118.782 109.532 117.567 108.002 117.567C106.247 117.567 105.092 119.037 105.092 121.497C105.092 123.702 106.412 125.172 108.167 125.172C109.217 125.172 110.132 124.632 110.837 123.567L110.552 123.387ZM106.397 120.507V120.432C106.397 118.767 106.922 117.942 107.927 117.942C108.842 117.942 109.367 118.737 109.367 120.162C109.367 120.492 109.187 120.507 108.587 120.507H106.397Z" fill="white"/>
</svg>
