<svg width="26" height="26" viewBox="0 0 26 26" fill="none" xmlns="http://www.w3.org/2000/svg">
<g clip-path="url(#clip0_1155_1715)">
<path d="M25.9863 13.2431C25.9863 12.1779 25.8979 11.4006 25.7065 10.5945H13.259V15.4023H20.5654C20.4181 16.5971 19.6227 18.3965 17.855 19.6056L17.8302 19.7665L21.7658 22.7459L22.0385 22.7725C24.5427 20.5125 25.9863 17.1873 25.9863 13.2431Z" fill="#4285F4"/>
<path d="M13.259 25.9106C16.8385 25.9106 19.8436 24.759 22.0385 22.7726L17.855 19.6056C16.7355 20.3686 15.2329 20.9012 13.259 20.9012C9.75315 20.9012 6.77758 18.6412 5.71687 15.5176L5.56139 15.5305L1.46905 18.6254L1.41553 18.7708C3.59565 23.0028 8.07379 25.9106 13.259 25.9106Z" fill="#34A853"/>
<path d="M5.71667 15.5175C5.43679 14.7114 5.27482 13.8477 5.27482 12.9552C5.27482 12.0627 5.43679 11.199 5.70195 10.393L5.69453 10.2213L1.5509 7.07666L1.41533 7.13968C0.5168 8.89587 0.0012207 10.868 0.0012207 12.9552C0.0012207 15.0425 0.5168 17.0145 1.41533 18.7707L5.71667 15.5175Z" fill="#FBBC05"/>
<path d="M13.259 5.00937C15.7485 5.00937 17.4277 6.06018 18.3853 6.93833L22.1269 3.36839C19.8289 1.28115 16.8385 0 13.259 0C8.07379 0 3.59565 2.90773 1.41553 7.13978L5.70214 10.3931C6.77758 7.26938 9.75315 5.00937 13.259 5.00937Z" fill="#EB4335"/>
</g>
<defs>
<clipPath id="clip0_1155_1715">
<rect width="26" height="26" fill="white"/>
</clipPath>
</defs>
</svg>
