<svg width="24" height="24" viewBox="0 0 24 24" fill="none" xmlns="http://www.w3.org/2000/svg">
<path d="M10.4482 8.7515C10.2219 8.53291 9.91876 8.41196 9.60412 8.41469C9.28949 8.41743 8.98851 8.54363 8.76602 8.76612C8.54353 8.98861 8.41733 9.28959 8.4146 9.60422C8.41186 9.91886 8.53282 10.222 8.75141 10.4483L11.1514 12.8483C11.3764 13.0733 11.6816 13.1996 11.9998 13.1996C12.318 13.1996 12.6232 13.0733 12.8482 12.8483L15.2482 10.4483C15.4668 10.222 15.5877 9.91886 15.585 9.60422C15.5823 9.28959 15.4561 8.98861 15.2336 8.76612C15.0111 8.54363 14.7101 8.41743 14.3955 8.41469C14.0809 8.41196 13.7777 8.53291 13.5514 8.7515L13.1998 9.1031V3.5999C13.1998 3.28164 13.0734 2.97642 12.8483 2.75137C12.6233 2.52633 12.3181 2.3999 11.9998 2.3999C11.6815 2.3999 11.3763 2.52633 11.1513 2.75137C10.9262 2.97642 10.7998 3.28164 10.7998 3.5999V9.1031L10.4482 8.7515Z" fill="#111827"/>
<path d="M3.6001 6.0001C3.6001 5.36358 3.85295 4.75313 4.30304 4.30304C4.75313 3.85295 5.36358 3.6001 6.0001 3.6001H7.2001C7.51836 3.6001 7.82358 3.72653 8.04863 3.95157C8.27367 4.17661 8.4001 4.48184 8.4001 4.8001C8.4001 5.11836 8.27367 5.42358 8.04863 5.64863C7.82358 5.87367 7.51836 6.0001 7.2001 6.0001H6.0001V14.4001H8.4001L9.6001 16.8001H14.4001L15.6001 14.4001H18.0001V6.0001H16.8001C16.4818 6.0001 16.1766 5.87367 15.9516 5.64863C15.7265 5.42358 15.6001 5.11836 15.6001 4.8001C15.6001 4.48184 15.7265 4.17661 15.9516 3.95157C16.1766 3.72653 16.4818 3.6001 16.8001 3.6001H18.0001C18.6366 3.6001 19.2471 3.85295 19.6972 4.30304C20.1472 4.75313 20.4001 5.36358 20.4001 6.0001V18.0001C20.4001 18.6366 20.1472 19.2471 19.6972 19.6972C19.2471 20.1472 18.6366 20.4001 18.0001 20.4001H6.0001C5.36358 20.4001 4.75313 20.1472 4.30304 19.6972C3.85295 19.2471 3.6001 18.6366 3.6001 18.0001V6.0001Z" fill="#111827"/>
</svg>
