<svg width="18" height="18" viewBox="0 0 18 18" fill="none" xmlns="http://www.w3.org/2000/svg">
<g clip-path="url(#clip0_1698_2695)">
<path d="M9 0C4.02991 0 0 4.02991 0 9C0 13.9701 4.02991 18 9 18C13.9701 18 18 13.9701 18 9C18 4.02991 13.9701 0 9 0ZM9 16.4732C4.87366 16.4732 1.52679 13.1263 1.52679 9C1.52679 4.87366 4.87366 1.52679 9 1.52679C13.1263 1.52679 16.4732 4.87366 16.4732 9C16.4732 13.1263 13.1263 16.4732 9 16.4732Z" fill="#4E71D5"/>
<path d="M11.2424 5.07667C10.6397 4.54832 9.84417 4.25903 9.00042 4.25903C8.15667 4.25903 7.36113 4.55033 6.75845 5.07667C6.13167 5.62511 5.78613 6.36238 5.78613 7.15189V7.30457C5.78613 7.39296 5.85845 7.46528 5.94685 7.46528H6.91113C6.99953 7.46528 7.07185 7.39296 7.07185 7.30457V7.15189C7.07185 6.26595 7.9377 5.54475 9.00042 5.54475C10.0631 5.54475 10.929 6.26595 10.929 7.15189C10.929 7.77667 10.487 8.34921 9.80198 8.61238C9.37609 8.77511 9.01448 9.06037 8.75533 9.43403C8.49216 9.81573 8.35555 10.2738 8.35555 10.7378V11.1697C8.35555 11.2581 8.42787 11.3305 8.51627 11.3305H9.48055C9.56895 11.3305 9.64127 11.2581 9.64127 11.1697V10.7137C9.64231 10.5187 9.70209 10.3285 9.81282 10.168C9.92355 10.0074 10.0801 9.88398 10.262 9.81372C11.4473 9.35769 12.2127 8.31305 12.2127 7.15189C12.2147 6.36238 11.8692 5.62511 11.2424 5.07667ZM8.19685 13.4197C8.19685 13.6329 8.28151 13.8373 8.43221 13.988C8.58291 14.1387 8.7873 14.2233 9.00042 14.2233C9.21354 14.2233 9.41793 14.1387 9.56863 13.988C9.71933 13.8373 9.80399 13.6329 9.80399 13.4197C9.80399 13.2066 9.71933 13.0022 9.56863 12.8515C9.41793 12.7008 9.21354 12.6162 9.00042 12.6162C8.7873 12.6162 8.58291 12.7008 8.43221 12.8515C8.28151 13.0022 8.19685 13.2066 8.19685 13.4197Z" fill="#4E71D5"/>
</g>
<defs>
<clipPath id="clip0_1698_2695">
<rect width="18" height="18" fill="white"/>
</clipPath>
</defs>
</svg>
