<svg width="35" height="35" viewBox="0 0 35 35" fill="none" xmlns="http://www.w3.org/2000/svg">
<path d="M34.4109 17.5C34.4109 26.89 26.8185 34.5 17.4555 34.5C8.09242 34.5 0.5 26.89 0.5 17.5C0.5 8.10996 8.09242 0.5 17.4555 0.5C26.8185 0.5 34.4109 8.10996 34.4109 17.5Z" stroke="#D3D3D3"/>
<path d="M17.9999 17.1072C17.9999 17.344 18.0939 17.5711 18.2614 17.7386C18.4288 17.906 18.6559 18.0001 18.8927 18.0001C19.1295 18.0001 19.3566 17.906 19.5241 17.7386C19.6915 17.5711 19.7856 17.344 19.7856 17.1072C19.7856 16.8704 19.6915 16.6433 19.5241 16.4759C19.3566 16.3084 19.1295 16.2144 18.8927 16.2144C18.6559 16.2144 18.4288 16.3084 18.2614 16.4759C18.0939 16.6433 17.9999 16.8704 17.9999 17.1072ZM26.1918 24.9844L22.1137 14.4286V10.5447H23.7141V9.02686H12.2856V10.5447H13.886V14.4286L9.8079 24.9844C9.7454 25.1496 9.71191 25.3237 9.71191 25.5001C9.71191 26.288 10.3525 26.9286 11.1405 26.9286H24.8592C25.0356 26.9286 25.2097 26.8952 25.3749 26.8327C26.1115 26.5492 26.4775 25.7211 26.1918 24.9844ZM15.4039 14.7121V10.5894H20.5958V14.7121L22.6249 19.9644C22.1628 19.8461 21.6851 19.7858 21.1985 19.7858C19.8324 19.7858 18.5378 20.2657 17.5088 21.1251C16.7493 21.7595 15.7908 22.1064 14.8012 22.105C14.0713 22.105 13.3704 21.9197 12.7521 21.576L15.4039 14.7121ZM11.2699 25.4108L12.2008 23.0045C12.9976 23.4086 13.8838 23.6251 14.8034 23.6251C16.1695 23.6251 17.4641 23.1452 18.4932 22.2858C19.2499 21.6563 20.1963 21.3059 21.2008 21.3059C21.982 21.3059 22.7275 21.5179 23.3793 21.9108L24.7298 25.4108H11.2699Z" fill="#999C9B"/>
</svg>
